<mxfile host="Electron" modified="2024-09-17T20:21:26.942Z" agent="Mozilla/5.0 (Windows NT 10.0; Win64; x64) AppleWebKit/537.36 (KHTML, like Gecko) draw.io/22.1.16 Chrome/120.0.6099.109 Electron/28.1.0 Safari/537.36" etag="Y6efH7tf6zhYPvmOVCJ5" version="22.1.16" type="device">
  <diagram name="Page-1" id="C7c-Z3E6zewC6qDkVF10">
    <mxGraphModel dx="478" dy="319" grid="1" gridSize="10" guides="1" tooltips="1" connect="1" arrows="1" fold="1" page="1" pageScale="1" pageWidth="500" pageHeight="170" math="0" shadow="0">
      <root>
        <mxCell id="0" />
        <mxCell id="1" parent="0" />
        <mxCell id="sYgT5iB3EFdrMdeRl_4N-12" style="rounded=0;orthogonalLoop=1;jettySize=auto;html=1;entryX=0.5;entryY=1;entryDx=0;entryDy=0;edgeStyle=orthogonalEdgeStyle;curved=1;" edge="1" parent="1">
          <mxGeometry relative="1" as="geometry">
            <mxPoint x="160" y="140" as="sourcePoint" />
            <mxPoint x="220.50000000000006" y="140" as="targetPoint" />
            <Array as="points">
              <mxPoint x="160" y="160" />
              <mxPoint x="221" y="160" />
            </Array>
          </mxGeometry>
        </mxCell>
        <mxCell id="sYgT5iB3EFdrMdeRl_4N-1" value="1" style="rounded=0;whiteSpace=wrap;html=1;" vertex="1" parent="1">
          <mxGeometry x="145" y="40" width="30" height="30" as="geometry" />
        </mxCell>
        <mxCell id="sYgT5iB3EFdrMdeRl_4N-11" style="edgeStyle=orthogonalEdgeStyle;rounded=0;orthogonalLoop=1;jettySize=auto;html=1;entryX=0.5;entryY=1;entryDx=0;entryDy=0;curved=1;" edge="1" parent="1" target="sYgT5iB3EFdrMdeRl_4N-7">
          <mxGeometry relative="1" as="geometry">
            <mxPoint x="190" y="140" as="sourcePoint" />
            <Array as="points">
              <mxPoint x="190" y="160" />
              <mxPoint x="250" y="160" />
            </Array>
          </mxGeometry>
        </mxCell>
        <mxCell id="sYgT5iB3EFdrMdeRl_4N-2" value="2" style="rounded=0;whiteSpace=wrap;html=1;" vertex="1" parent="1">
          <mxGeometry x="175" y="40" width="30" height="30" as="geometry" />
        </mxCell>
        <mxCell id="sYgT5iB3EFdrMdeRl_4N-3" value="3" style="rounded=0;whiteSpace=wrap;html=1;" vertex="1" parent="1">
          <mxGeometry x="205" y="40" width="30" height="30" as="geometry" />
        </mxCell>
        <mxCell id="sYgT5iB3EFdrMdeRl_4N-4" value="4" style="rounded=0;whiteSpace=wrap;html=1;" vertex="1" parent="1">
          <mxGeometry x="235" y="40" width="30" height="30" as="geometry" />
        </mxCell>
        <mxCell id="sYgT5iB3EFdrMdeRl_4N-5" value="5" style="rounded=0;whiteSpace=wrap;html=1;" vertex="1" parent="1">
          <mxGeometry x="265" y="40" width="30" height="30" as="geometry" />
        </mxCell>
        <mxCell id="sYgT5iB3EFdrMdeRl_4N-14" style="edgeStyle=orthogonalEdgeStyle;rounded=0;orthogonalLoop=1;jettySize=auto;html=1;exitX=0.5;exitY=0;exitDx=0;exitDy=0;entryX=0.5;entryY=0;entryDx=0;entryDy=0;curved=1;" edge="1" parent="1" source="sYgT5iB3EFdrMdeRl_4N-6" target="sYgT5iB3EFdrMdeRl_4N-8">
          <mxGeometry relative="1" as="geometry" />
        </mxCell>
        <mxCell id="sYgT5iB3EFdrMdeRl_4N-6" value="1" style="rounded=0;whiteSpace=wrap;html=1;" vertex="1" parent="1">
          <mxGeometry x="205" y="110" width="30" height="30" as="geometry" />
        </mxCell>
        <mxCell id="sYgT5iB3EFdrMdeRl_4N-15" style="edgeStyle=orthogonalEdgeStyle;rounded=0;orthogonalLoop=1;jettySize=auto;html=1;exitX=0.5;exitY=0;exitDx=0;exitDy=0;entryX=0.5;entryY=0;entryDx=0;entryDy=0;curved=1;" edge="1" parent="1" source="sYgT5iB3EFdrMdeRl_4N-7" target="sYgT5iB3EFdrMdeRl_4N-9">
          <mxGeometry relative="1" as="geometry" />
        </mxCell>
        <mxCell id="sYgT5iB3EFdrMdeRl_4N-7" value="2" style="rounded=0;whiteSpace=wrap;html=1;" vertex="1" parent="1">
          <mxGeometry x="235" y="110" width="30" height="30" as="geometry" />
        </mxCell>
        <mxCell id="sYgT5iB3EFdrMdeRl_4N-16" style="edgeStyle=orthogonalEdgeStyle;rounded=0;orthogonalLoop=1;jettySize=auto;html=1;exitX=0.5;exitY=1;exitDx=0;exitDy=0;entryX=0.5;entryY=1;entryDx=0;entryDy=0;curved=1;" edge="1" parent="1" source="sYgT5iB3EFdrMdeRl_4N-8" target="sYgT5iB3EFdrMdeRl_4N-10">
          <mxGeometry relative="1" as="geometry" />
        </mxCell>
        <mxCell id="sYgT5iB3EFdrMdeRl_4N-8" value="1" style="rounded=0;whiteSpace=wrap;html=1;" vertex="1" parent="1">
          <mxGeometry x="265" y="110" width="30" height="30" as="geometry" />
        </mxCell>
        <mxCell id="sYgT5iB3EFdrMdeRl_4N-9" value="2" style="rounded=0;whiteSpace=wrap;html=1;" vertex="1" parent="1">
          <mxGeometry x="295" y="110" width="30" height="30" as="geometry" />
        </mxCell>
        <mxCell id="sYgT5iB3EFdrMdeRl_4N-10" value="1" style="rounded=0;whiteSpace=wrap;html=1;" vertex="1" parent="1">
          <mxGeometry x="325" y="110" width="30" height="30" as="geometry" />
        </mxCell>
        <mxCell id="sYgT5iB3EFdrMdeRl_4N-17" value="" style="endArrow=none;html=1;rounded=0;" edge="1" parent="1">
          <mxGeometry width="50" height="50" relative="1" as="geometry">
            <mxPoint x="145" y="30" as="sourcePoint" />
            <mxPoint x="145" y="10" as="targetPoint" />
          </mxGeometry>
        </mxCell>
        <mxCell id="sYgT5iB3EFdrMdeRl_4N-18" value="" style="endArrow=none;html=1;rounded=0;" edge="1" parent="1">
          <mxGeometry width="50" height="50" relative="1" as="geometry">
            <mxPoint x="175" y="30" as="sourcePoint" />
            <mxPoint x="175" y="10" as="targetPoint" />
          </mxGeometry>
        </mxCell>
        <mxCell id="sYgT5iB3EFdrMdeRl_4N-19" value="" style="endArrow=none;html=1;rounded=0;" edge="1" parent="1">
          <mxGeometry width="50" height="50" relative="1" as="geometry">
            <mxPoint x="204.76999999999998" y="30" as="sourcePoint" />
            <mxPoint x="204.76999999999998" y="10" as="targetPoint" />
          </mxGeometry>
        </mxCell>
        <mxCell id="sYgT5iB3EFdrMdeRl_4N-21" value="" style="endArrow=none;html=1;rounded=0;" edge="1" parent="1">
          <mxGeometry width="50" height="50" relative="1" as="geometry">
            <mxPoint x="264.77" y="30" as="sourcePoint" />
            <mxPoint x="264.77" y="10" as="targetPoint" />
          </mxGeometry>
        </mxCell>
        <mxCell id="sYgT5iB3EFdrMdeRl_4N-22" value="" style="endArrow=none;html=1;rounded=0;" edge="1" parent="1">
          <mxGeometry width="50" height="50" relative="1" as="geometry">
            <mxPoint x="235" y="30" as="sourcePoint" />
            <mxPoint x="235" y="10" as="targetPoint" />
          </mxGeometry>
        </mxCell>
        <mxCell id="sYgT5iB3EFdrMdeRl_4N-25" value="" style="endArrow=none;html=1;rounded=0;" edge="1" parent="1">
          <mxGeometry width="50" height="50" relative="1" as="geometry">
            <mxPoint x="294.77" y="30" as="sourcePoint" />
            <mxPoint x="294.77" y="10" as="targetPoint" />
          </mxGeometry>
        </mxCell>
        <mxCell id="sYgT5iB3EFdrMdeRl_4N-26" value="" style="endArrow=none;html=1;rounded=0;" edge="1" parent="1">
          <mxGeometry width="50" height="50" relative="1" as="geometry">
            <mxPoint x="324.77" y="30" as="sourcePoint" />
            <mxPoint x="324.77" y="10" as="targetPoint" />
          </mxGeometry>
        </mxCell>
        <mxCell id="sYgT5iB3EFdrMdeRl_4N-27" value="" style="endArrow=none;html=1;rounded=0;" edge="1" parent="1">
          <mxGeometry width="50" height="50" relative="1" as="geometry">
            <mxPoint x="354.77" y="30" as="sourcePoint" />
            <mxPoint x="354.77" y="10" as="targetPoint" />
          </mxGeometry>
        </mxCell>
        <mxCell id="sYgT5iB3EFdrMdeRl_4N-28" value="" style="endArrow=none;html=1;rounded=0;exitX=0.5;exitY=1;exitDx=0;exitDy=0;" edge="1" parent="1" source="sYgT5iB3EFdrMdeRl_4N-2">
          <mxGeometry width="50" height="50" relative="1" as="geometry">
            <mxPoint x="230" y="120" as="sourcePoint" />
            <mxPoint x="190" y="140" as="targetPoint" />
          </mxGeometry>
        </mxCell>
        <mxCell id="sYgT5iB3EFdrMdeRl_4N-29" value="" style="endArrow=none;html=1;rounded=0;exitX=0.5;exitY=1;exitDx=0;exitDy=0;" edge="1" parent="1">
          <mxGeometry width="50" height="50" relative="1" as="geometry">
            <mxPoint x="159.97" y="70" as="sourcePoint" />
            <mxPoint x="159.97" y="140" as="targetPoint" />
          </mxGeometry>
        </mxCell>
      </root>
    </mxGraphModel>
  </diagram>
</mxfile>
